<svg width="173" height="173" viewBox="0 0 173 173" fill="none" xmlns="http://www.w3.org/2000/svg">
<rect width="173" height="173" rx="86.5" fill="#E9E9E9"/>
<g filter="url(#filter0_f_3_2)">
<path d="M13.5 132.5L51 76L73 104L110.5 36.5L168.5 114" stroke="black" stroke-opacity="0.25"/>
</g>
<g filter="url(#filter1_f_3_2)">
<path d="M91.6082 80.5952L81 90.5L110.5 37L121.412 50.5L131 64L127.474 67.719L121.412 60.2905L109.794 61.7762L97.6701 69.7L91.6082 80.5952Z" fill="#AFAFAF"/>
<path d="M91.6082 80.5952L81 90.5L110.5 37L121.412 50.5L131 64L127.474 67.719L121.412 60.2905L109.794 61.7762L97.6701 69.7L91.6082 80.5952Z" stroke="#AFAFAF" stroke-width="0.71"/>
</g>
<g filter="url(#filter2_f_3_2)">
<path d="M56 83.125L41 91L51 76L56 83.125Z" fill="#AFAFAF"/>
<path d="M56 83.125L41 91L51 76L56 83.125Z" stroke="#AFAFAF" stroke-width="0.71"/>
</g>
<g filter="url(#filter3_df_3_2)">
<circle cx="55" cy="27" r="14" fill="#C5630A" fill-opacity="0.41" shape-rendering="crispEdges"/>
</g>
<path d="M104 115.5C76.4 116.7 31.6667 126.5 13 132C30.5 158.5 57.9 176.4 99.5 172C141.1 167.6 168 123 168 113.5C158.333 113.667 131.6 114.3 104 115.5Z" fill="#C4C4C4"/>
<g filter="url(#filter4_f_3_2)">
<path d="M105.157 101.127L110.711 110.328L99.3904 110.196L105.157 101.127Z" fill="#2F2F2F"/>
<path d="M105.103 105.767L110.657 114.969L99.3363 114.836L105.103 105.767Z" fill="#2F2F2F"/>
<path d="M105.16 107.079L114.432 122.813L95.5235 122.592L105.16 107.079Z" fill="#2F2F2F"/>
</g>
<g filter="url(#filter5_f_3_2)">
<path d="M66.769 98.7593L74.2215 108.284L59.7076 108.577L66.769 98.7593Z" fill="#2F2F2F"/>
<path d="M66.8683 103.672L74.3208 113.196L59.8068 113.49L66.8683 103.672Z" fill="#2F2F2F"/>
<path d="M66.9896 105.058L79.4458 121.353L55.202 121.843L66.9896 105.058Z" fill="#2F2F2F"/>
</g>
<g filter="url(#filter6_f_3_2)">
<path d="M74.8808 90.1293L79.7964 109.594L69.3486 109.428L74.8808 90.1293Z" fill="#878787"/>
<path d="M74.7199 100.242L79.6355 119.707L69.1877 119.54L74.7199 100.242Z" fill="#878787"/>
<path d="M74.544 103.048L81.0626 128.861L67.2079 128.64L74.544 103.048Z" fill="#878787"/>
<path d="M74.3118 117.655L77.8382 131.619L70.3431 131.5L74.3118 117.655Z" fill="#878787"/>
</g>
<g filter="url(#filter7_f_3_2)">
<path d="M120.62 85.0843L125.643 104.522L115.195 104.413L120.62 85.0843Z" fill="#413E3E"/>
<path d="M120.515 95.1974L125.539 114.635L115.09 114.527L120.515 95.1974Z" fill="#413E3E"/>
<path d="M120.355 98.0052L127.016 123.781L113.161 123.637L120.355 98.0052Z" fill="#413E3E"/>
<path d="M120.203 112.613L123.807 126.557L116.311 126.479L120.203 112.613Z" fill="#413E3E"/>
</g>
<g filter="url(#filter8_f_3_2)">
<path d="M17.6738 108.331L20.169 114.885L16.5096 115.246L17.6738 108.331Z" fill="#5F5151"/>
<path d="M18.8537 114.081L25.8147 133.794L15.8857 134.775L18.8537 114.081Z" fill="#5F5151"/>
<path d="M18.0393 112.028L22.4157 123.596L16.0117 124.229L18.0393 112.028Z" fill="#5F5151"/>
<path d="M43.1075 107.201L47.0334 113.349L39.4721 113.525L43.1075 107.201Z" fill="#231717"/>
<path d="M43.161 109.488L50.4509 120.861L36.4085 121.189L43.161 109.488Z" fill="#231717"/>
<path d="M43.5743 113.846L52.4526 127.679L35.3497 128.077L43.5743 113.846Z" fill="#231717"/>
<path d="M40.3429 125.306L43.9562 127.8L37.2838 128.455L40.3429 125.306Z" fill="#2F2F2F"/>
<path d="M40.4835 126.739L44.0968 129.234L37.4245 129.889L40.4835 126.739Z" fill="#2F2F2F"/>
<path d="M40.5662 127.14L46.6128 131.419L35.4675 132.513L40.5662 127.14Z" fill="#2F2F2F"/>
<path d="M30.0911 111.988L31.7386 118.601L28.2196 121.069L30.0911 111.988Z" fill="#494747"/>
<path d="M30.0429 115.332L32.9884 124.123L28.1713 124.413L30.0429 115.332Z" fill="#494747"/>
<path d="M30.0602 116.63L33.9663 128.289L27.5784 128.672L30.0602 116.63Z" fill="#494747"/>
<path d="M30.4649 123.365L32.578 129.672L29.1223 129.879L30.4649 123.365Z" fill="#494747"/>
<path d="M34.7711 119.753L37.5709 128.592L32.7497 128.802L34.7711 119.753Z" fill="#413E3E"/>
<path d="M34.9739 124.42L37.7738 133.259L32.9526 133.469L34.9739 124.42Z" fill="#413E3E"/>
<path d="M34.97 125.719L38.6828 137.44L32.2895 137.718L34.97 125.719Z" fill="#413E3E"/>
<path d="M35.2631 132.459L37.2717 138.8L33.813 138.951L35.2631 132.459Z" fill="#413E3E"/>
<path d="M26.463 119.667L29.9244 124.539L24.0477 125.133L26.463 119.667Z" fill="#2D2424"/>
<path d="M27.267 125.62L33.7744 134.71L22.7122 135.829L27.267 125.62Z" fill="#2D2424"/>
<path d="M27.3598 126.539L34.698 136.937L22.2531 138.196L27.3598 126.539Z" fill="#2D2424"/>
<path d="M26.6023 121.045L32.106 128.844L22.7723 129.788L26.6023 121.045Z" fill="#2D2424"/>
<path d="M26.463 119.667L29.9244 124.539L24.0477 125.133L26.463 119.667Z" fill="#2D2424"/>
</g>
<g filter="url(#filter9_f_3_2)">
<path d="M59.9612 84.4213L63.4929 99.1891L55.5343 98.9459L59.9612 84.4213Z" fill="#1A1A1A"/>
<path d="M59.5752 97.0572L70.1702 141.361L46.2945 140.631L59.5752 97.0572Z" fill="#1A1A1A"/>
<path d="M59.7155 92.4623L65.8893 118.521L51.9618 118.096L59.7155 92.4623Z" fill="#1A1A1A"/>
</g>
<path d="M107 140.5C83.4 141.7 59.3333 157.5 50.5 165C57 169 75.5 173 89 172.5C90.1667 168.5 90 160 94 156C99 151 116.5 147.5 121 145.5L121.095 145.458C125.673 143.423 138.003 137.944 138.5 130C139.219 118.5 140.801 115.588 144.301 114.088L135.801 114.588C136.468 122.421 130.6 139.3 107 140.5Z" fill="#DAB28D"/>
<g filter="url(#filter10_f_3_2)">
<path d="M50.25 129.031L55.4258 141.882L44.9767 141.843L50.25 129.031Z" fill="#413E3E"/>
<path d="M50.2245 135.726L55.4002 148.577L44.9512 148.537L50.2245 135.726Z" fill="#413E3E"/>
<path d="M50.0862 137.585L56.9497 154.627L43.0934 154.574L50.0862 137.585Z" fill="#413E3E"/>
<path d="M50.0495 147.255L53.7625 156.474L46.2665 156.446L50.0495 147.255Z" fill="#413E3E"/>
</g>
<g filter="url(#filter11_f_3_2)">
<path d="M87.3771 97.2774L95.0714 108.547L79.3516 108.313L87.3771 97.2774Z" fill="#383838"/>
<path d="M87.7197 110.173L102.206 131.211L72.6156 130.772L87.7197 110.173Z" fill="#383838"/>
<path d="M87.6903 112.156L103.981 136.195L70.6927 135.701L87.6903 112.156Z" fill="#383838"/>
<path d="M87.3329 100.251L99.5514 118.281L74.5847 117.911L87.3329 100.251Z" fill="#383838"/>
<path d="M87.3771 97.2774L95.0714 108.547L79.3516 108.313L87.3771 97.2774Z" fill="#383838"/>
</g>
<g filter="url(#filter12_f_3_2)">
<path d="M141.751 80.3936L149.682 94.0541L133.308 93.7429L141.751 80.3936Z" fill="#242121"/>
<path d="M141.657 85.3454L156.387 110.618L125.978 110.04L141.657 85.3454Z" fill="#242121"/>
<path d="M142.153 94.8117L160.093 125.55L123.057 124.846L142.153 94.8117Z" fill="#242121"/>
</g>
<path d="M109.972 126.148L135.474 118.098L149.386 141.575L128.482 152.557L109.238 154.035L94.09 149.712L109.972 126.148Z" fill="#1D4F6A"/>
<path d="M109.972 126.148L135.474 118.098L149.386 141.575L128.482 152.557M109.972 126.148L94.09 149.712L109.238 154.035M109.972 126.148L128.482 152.557M109.972 126.148L109.238 154.035M128.482 152.557L109.238 154.035" stroke="black"/>
<defs>
<filter id="filter0_f_3_2" x="12.0834" y="34.5824" width="157.817" height="99.1941" filterUnits="userSpaceOnUse" color-interpolation-filters="sRGB">
<feFlood flood-opacity="0" result="BackgroundImageFix"/>
<feBlend mode="normal" in="SourceGraphic" in2="BackgroundImageFix" result="shape"/>
<feGaussianBlur stdDeviation="0.5" result="effect1_foregroundBlur_3_2"/>
</filter>
<filter id="filter1_f_3_2" x="79.6891" y="35.3661" width="52.7694" height="56.3933" filterUnits="userSpaceOnUse" color-interpolation-filters="sRGB">
<feFlood flood-opacity="0" result="BackgroundImageFix"/>
<feBlend mode="normal" in="SourceGraphic" in2="BackgroundImageFix" result="shape"/>
<feGaussianBlur stdDeviation="0.5" result="effect1_foregroundBlur_3_2"/>
</filter>
<filter id="filter2_f_3_2" x="39.7046" y="74.3713" width="17.818" height="17.9431" filterUnits="userSpaceOnUse" color-interpolation-filters="sRGB">
<feFlood flood-opacity="0" result="BackgroundImageFix"/>
<feBlend mode="normal" in="SourceGraphic" in2="BackgroundImageFix" result="shape"/>
<feGaussianBlur stdDeviation="0.5" result="effect1_foregroundBlur_3_2"/>
</filter>
<filter id="filter3_df_3_2" x="35" y="11" width="36" height="36" filterUnits="userSpaceOnUse" color-interpolation-filters="sRGB">
<feFlood flood-opacity="0" result="BackgroundImageFix"/>
<feColorMatrix in="SourceAlpha" type="matrix" values="0 0 0 0 0 0 0 0 0 0 0 0 0 0 0 0 0 0 127 0" result="hardAlpha"/>
<feOffset dx="-2" dy="2"/>
<feGaussianBlur stdDeviation="2"/>
<feComposite in2="hardAlpha" operator="out"/>
<feColorMatrix type="matrix" values="0 0 0 0 0 0 0 0 0 0 0 0 0 0 0 0 0 0 0.25 0"/>
<feBlend mode="normal" in2="BackgroundImageFix" result="effect1_dropShadow_3_2"/>
<feBlend mode="normal" in="SourceGraphic" in2="effect1_dropShadow_3_2" result="shape"/>
<feGaussianBlur stdDeviation="0.5" result="effect2_foregroundBlur_3_2"/>
</filter>
<filter id="filter4_f_3_2" x="94.5234" y="100.127" width="20.9089" height="23.6859" filterUnits="userSpaceOnUse" color-interpolation-filters="sRGB">
<feFlood flood-opacity="0" result="BackgroundImageFix"/>
<feBlend mode="normal" in="SourceGraphic" in2="BackgroundImageFix" result="shape"/>
<feGaussianBlur stdDeviation="0.5" result="effect1_foregroundBlur_3_2"/>
</filter>
<filter id="filter5_f_3_2" x="54.202" y="97.7593" width="26.2438" height="25.0834" filterUnits="userSpaceOnUse" color-interpolation-filters="sRGB">
<feFlood flood-opacity="0" result="BackgroundImageFix"/>
<feBlend mode="normal" in="SourceGraphic" in2="BackgroundImageFix" result="shape"/>
<feGaussianBlur stdDeviation="0.5" result="effect1_foregroundBlur_3_2"/>
</filter>
<filter id="filter6_f_3_2" x="66.2079" y="89.1293" width="15.8546" height="43.4898" filterUnits="userSpaceOnUse" color-interpolation-filters="sRGB">
<feFlood flood-opacity="0" result="BackgroundImageFix"/>
<feBlend mode="normal" in="SourceGraphic" in2="BackgroundImageFix" result="shape"/>
<feGaussianBlur stdDeviation="0.5" result="effect1_foregroundBlur_3_2"/>
</filter>
<filter id="filter7_f_3_2" x="112.161" y="84.0843" width="15.8557" height="43.4728" filterUnits="userSpaceOnUse" color-interpolation-filters="sRGB">
<feFlood flood-opacity="0" result="BackgroundImageFix"/>
<feBlend mode="normal" in="SourceGraphic" in2="BackgroundImageFix" result="shape"/>
<feGaussianBlur stdDeviation="0.5" result="effect1_foregroundBlur_3_2"/>
</filter>
<filter id="filter8_f_3_2" x="14.8857" y="106.201" width="38.5669" height="33.7497" filterUnits="userSpaceOnUse" color-interpolation-filters="sRGB">
<feFlood flood-opacity="0" result="BackgroundImageFix"/>
<feBlend mode="normal" in="SourceGraphic" in2="BackgroundImageFix" result="shape"/>
<feGaussianBlur stdDeviation="0.5" result="effect1_foregroundBlur_3_2"/>
</filter>
<filter id="filter9_f_3_2" x="45.2944" y="83.4213" width="25.8757" height="58.9394" filterUnits="userSpaceOnUse" color-interpolation-filters="sRGB">
<feFlood flood-opacity="0" result="BackgroundImageFix"/>
<feBlend mode="normal" in="SourceGraphic" in2="BackgroundImageFix" result="shape"/>
<feGaussianBlur stdDeviation="0.5" result="effect1_foregroundBlur_3_2"/>
</filter>
<filter id="filter10_f_3_2" x="42.0934" y="128.031" width="15.8563" height="29.4435" filterUnits="userSpaceOnUse" color-interpolation-filters="sRGB">
<feFlood flood-opacity="0" result="BackgroundImageFix"/>
<feBlend mode="normal" in="SourceGraphic" in2="BackgroundImageFix" result="shape"/>
<feGaussianBlur stdDeviation="0.5" result="effect1_foregroundBlur_3_2"/>
</filter>
<filter id="filter11_f_3_2" x="69.6926" y="96.2774" width="35.2888" height="40.9179" filterUnits="userSpaceOnUse" color-interpolation-filters="sRGB">
<feFlood flood-opacity="0" result="BackgroundImageFix"/>
<feBlend mode="normal" in="SourceGraphic" in2="BackgroundImageFix" result="shape"/>
<feGaussianBlur stdDeviation="0.5" result="effect1_foregroundBlur_3_2"/>
</filter>
<filter id="filter12_f_3_2" x="122.057" y="79.3936" width="39.0359" height="47.156" filterUnits="userSpaceOnUse" color-interpolation-filters="sRGB">
<feFlood flood-opacity="0" result="BackgroundImageFix"/>
<feBlend mode="normal" in="SourceGraphic" in2="BackgroundImageFix" result="shape"/>
<feGaussianBlur stdDeviation="0.5" result="effect1_foregroundBlur_3_2"/>
</filter>
</defs>
</svg>
